<svg xmlns="http://www.w3.org/2000/svg" viewBox="0 0 157.37 95.33"><defs><style>.cls-1,.cls-2{fill:#f2f2f2;}.cls-1{fill-rule:evenodd;}</style></defs><title>ala-carte-wrap-icon-white</title><g id="Layer_2" data-name="Layer 2"><g id="Layer_1-2" data-name="Layer 1"><path class="cls-1" d="M72.37,55.33a44.71,44.71,0,0,1,6.22-22.79H27.81c-6,0-8.08.81-4.52-4.55,3.7-5.56,6.84-10.41,11-16.48,3.52-5.21,4.95-6,10.79-6H87.75c5.85.05,7.27.79,10.79,6l1.54,2.28a44.61,44.61,0,0,1,6-2c-2.56-3.09-5.17-6.14-7.73-9.48A5,5,0,0,0,94.17,0H38.63a4.93,4.93,0,0,0-4.15,2.29c-4.57,6-9.3,11-13.61,16.94l-11.53,0c-4.87,0-5.9-.39-8.26,4.15L.43,24.66c-1.48,2.85,1.08,4.45,4,5.74l6.31,2.46c-1.32,1.72-2.07,2.82-3.38,4.54-2.17,2.86-2.49,4.3-2.49,8V82.9c0,6.49-.36,7.1,5.05,7.1H27.19c1.85.06,3-1.36,2.93-3.32V83.57H82.37A44.78,44.78,0,0,1,72.37,55.33ZM30.92,50.77H20.55c-3.62,0-6.57-3.29-6.57-7.31V42.34H26a5.24,5.24,0,0,1,4.93,5.48Z"/><path class="cls-2" d="M117.37,20.33a35,35,0,1,1-35,35,35,35,0,0,1,35-35m0-5a40,40,0,1,0,40,40,40,40,0,0,0-40-40Z"/><circle class="cls-2" cx="95.35" cy="42.75" r="2.42"/><rect class="cls-2" x="103.61" y="40.33" width="38.19" height="4.84" rx="2.42" ry="2.42"/><circle class="cls-2" cx="95.35" cy="55.33" r="2.42"/><rect class="cls-2" x="103.61" y="52.91" width="38.19" height="4.84" rx="2.42" ry="2.42"/><circle class="cls-2" cx="95.35" cy="67.91" r="2.42"/><rect class="cls-2" x="103.61" y="65.49" width="38.19" height="4.84" rx="2.42" ry="2.42"/></g></g></svg>