<svg xmlns="http://www.w3.org/2000/svg" viewBox="0 0 100.8 92.04"><defs><style>.cls-1{fill:#414042;}.cls-2{fill:#939598;}</style></defs><title>countless-options</title><g id="Layer_2" data-name="Layer 2"><g id="Layer_1-2" data-name="Layer 1"><path class="cls-1" d="M28.14,0H6.43A6.43,6.43,0,0,0,0,6.43V85.61A6.43,6.43,0,0,0,6.43,92h21.7a6.43,6.43,0,0,0,6.43-6.43V6.43A6.43,6.43,0,0,0,28.14,0ZM21.46,84.06a5,5,0,1,1,5-5A5,5,0,0,1,21.46,84.06Z"/><path class="cls-2" d="M35.55,1.75S39.5,6.32,39,12.11V70.75L60.22,19.47A6.5,6.5,0,0,0,56.74,11Z"/><path class="cls-2" d="M65.32,13.14s1.85,5.75-.87,10.88L41.57,78,81.11,39.08a6.5,6.5,0,0,0,.1-9.16Z"/><path class="cls-2" d="M88,35s-.53,6-5,9.68L40.83,85.49,92.41,65a6.5,6.5,0,0,0,3.66-8.4Z"/><path class="cls-2" d="M100.8,62s-2.72,5.4-8.26,7.13L38.34,91.51l55.5,0a6.5,6.5,0,0,0,6.51-6.45Z"/></g></g></svg>