<svg xmlns="http://www.w3.org/2000/svg" viewBox="0 0 166.48 87.45"><defs><style>.cls-1{fill:#414042;}</style></defs><title>Asset 11</title><g id="Layer_2" data-name="Layer 2"><g id="Layer_1-2" data-name="Layer 1"><path class="cls-1" d="M114.23,1.61c-13-4.7-30.42,12-30.42,12s-16.94-17.26-30-13C53.78.69,27.4,7.54,0,49.87c0,0,15.68,37.24,82.69,37.52,67,1.77,83.79-35,83.79-35C140.39,9.26,114.23,1.61,114.23,1.61Zm-31,50C60.86,51.3,49.1,43.43,49.1,43.43a53.1,53.1,0,0,1,16.65-7,68.67,68.67,0,0,1,35.41.54,53.1,53.1,0,0,1,16.43,7.46S105.6,52,83.23,51.64Z"/></g></g></svg>