<svg xmlns="http://www.w3.org/2000/svg" viewBox="0 0 133.98 89.03"><defs><style>.cls-1{fill:#414042;}.cls-2{fill:#939598;}</style></defs><title>installation-time</title><g id="Layer_2" data-name="Layer 2"><g id="Layer_1-2" data-name="Layer 1"><path class="cls-1" d="M0,36.95a3.47,3.47,0,0,1,1.23-3A4.08,4.08,0,0,1,3.62,33H7.77q3.27,0,5.13,4t8.58,4h5q4.32,0,6.33-1.23a4.52,4.52,0,0,0,2-4.18,4.52,4.52,0,0,0-2-4.18q-2-1.23-6.33-1.23H20.18a3.24,3.24,0,0,1-2.36-1,3.16,3.16,0,0,1-1-2.34V24a3.25,3.25,0,0,1,.95-2.3,3,3,0,0,1,2.25-1h5.17q4.68,0,6.8-1.23a4.44,4.44,0,0,0,2.13-4.18A4.4,4.4,0,0,0,32,11.16q-2.13-1.21-6.8-1.21h-2.6q-6.75,0-8.93,4.32-1.58,3.31-4.75,3.3H4.75a3.14,3.14,0,0,1-2.64-1.23,4.28,4.28,0,0,1-.95-2.67A10.23,10.23,0,0,1,4.22,6.45a19.14,19.14,0,0,1,7.63-4.83A28.36,28.36,0,0,1,21.38,0h4.85Q47.39,0,47.39,15.4a12,12,0,0,1-4.82,10.09,11.28,11.28,0,0,1,5.52,10.16q0,8.12-5.19,11.72T27.74,51H20.25A25.88,25.88,0,0,1,6.19,47.09Q0,43.21,0,36.95Z"/><path class="cls-1" d="M51.71,30.69V26.51a2.12,2.12,0,0,1,.62-1.56,2.08,2.08,0,0,1,1.53-.62H80.37a2.11,2.11,0,0,1,2.18,2.18v4.18a2.06,2.06,0,0,1-.62,1.55,2.15,2.15,0,0,1-1.56.6H53.86a2,2,0,0,1-2.14-2.14Z"/><path class="cls-1" d="M86.84,38.53a3.47,3.47,0,0,1,1.23-3,4,4,0,0,1,2.36-.9h4.18q3,0,4.71,3.22t7.52,3.22h5.55q4.32,0,6.35-1.37t2-4.69q0-3.32-2-4.68T112.39,29H91.93A3.21,3.21,0,0,1,89.6,28a3.13,3.13,0,0,1-1-2.32V3.62A3.27,3.27,0,0,1,91.93.28h36.21a3.25,3.25,0,0,1,3.34,3.34v3.3a3.18,3.18,0,0,1-.95,2.37,3.27,3.27,0,0,1-2.39.93H101.88V19h11.74q10,0,15.17,3.74T134,35q0,8.49-5.19,12.23T113.63,51h-8a23.77,23.77,0,0,1-13.34-3.57Q86.84,43.84,86.84,38.53Z"/><path class="cls-2" d="M35.25,83.74a7.25,7.25,0,0,1-5.46-2.3q-2.2-2.3-2.2-6.59t2.27-6.58A8.24,8.24,0,0,1,36,66a15.25,15.25,0,0,1,4.52.8V62a.94.94,0,0,1,.27-.7.92.92,0,0,1,.68-.27h3.48a.94.94,0,0,1,1,1V82.48a.92.92,0,0,1-.27.68.94.94,0,0,1-.7.27h-3a.91.91,0,0,1-.69-.27.94.94,0,0,1-.27-.68V82A9.66,9.66,0,0,1,35.25,83.74ZM34.06,71a6.64,6.64,0,0,0-.89,3.88A7,7,0,0,0,34,78.76,2.88,2.88,0,0,0,36.55,80a7.74,7.74,0,0,0,3.95-1.41V70.4a11.85,11.85,0,0,0-3.39-.62A3.54,3.54,0,0,0,34.06,71Z"/><path class="cls-2" d="M50.85,82.31a4.66,4.66,0,0,1-2.07-4.06,4.58,4.58,0,0,1,2.07-4,9.31,9.31,0,0,1,5.34-1.41h5.17a3.41,3.41,0,0,0-.77-2.55,3.91,3.91,0,0,0-2.68-.72,3.3,3.3,0,0,0-2.69.95,2.37,2.37,0,0,1-1.9.95H51a.94.94,0,0,1-.7-.27.92.92,0,0,1-.27-.68Q50,66,58.54,66a9.81,9.81,0,0,1,6,1.66,6,6,0,0,1,2.25,5.15v9.67a.91.91,0,0,1-1,1h-3a.91.91,0,0,1-.69-.27.94.94,0,0,1-.27-.68V82a9.5,9.5,0,0,1-5.7,1.76A9.12,9.12,0,0,1,50.85,82.31Zm4-5.42a1.71,1.71,0,0,0-.63,1.38,1.73,1.73,0,0,0,.66,1.39,2.83,2.83,0,0,0,1.86.55,8.59,8.59,0,0,0,4.64-1.41V76.35h-4.8A2.6,2.6,0,0,0,54.83,76.89Z"/><path class="cls-2" d="M73.62,85.06l2,.27q2.2,0,3.08-3.23a6.39,6.39,0,0,1-4.44-1.6q-1.78-1.6-3.06-5.7l-2.33-7.55a.82.82,0,0,1,0-.29.68.68,0,0,1,.2-.4.76.76,0,0,1,.59-.25h3.27a1.44,1.44,0,0,1,.87.3,1.39,1.39,0,0,1,.54.76l2,6.63a10.36,10.36,0,0,0,1.55,3.38,2.37,2.37,0,0,0,1.87.94L82.9,67.37a1.47,1.47,0,0,1,.49-.76,1.25,1.25,0,0,1,.82-.3h3.3a.68.68,0,0,1,.58.25.76.76,0,0,1,.19.41,1,1,0,0,1,0,.27L84.15,81.84a13,13,0,0,1-2.71,5.53A5.57,5.57,0,0,1,77.28,89a23.56,23.56,0,0,1-3.6-.19,2.73,2.73,0,0,1-1.32-.46.88.88,0,0,1-.27-.63V86a1,1,0,0,1,.27-.7.91.91,0,0,1,.69-.27Z"/><path class="cls-2" d="M89.54,71q0-5,8.14-5,8.56,0,8.56,4.48a.94.94,0,0,1-.27.68.92.92,0,0,1-.69.27H103a2.34,2.34,0,0,1-1.89-.95q-.77-.94-3-.95Q95,69.54,95,71q0,.7,1.21,1.17a18.32,18.32,0,0,0,3,.82,33.87,33.87,0,0,1,3.48.9,7.21,7.21,0,0,1,2.95,1.74,4.07,4.07,0,0,1,1.21,3q0,5-8.59,5t-8.59-4.47a.94.94,0,0,1,1-1h2.33a2.35,2.35,0,0,1,1.89.95q.77.95,3,.95,3.58,0,3.58-1.5,0-.7-1.21-1.17a19.34,19.34,0,0,0-3-.84q-1.75-.37-3.48-.91A7.15,7.15,0,0,1,90.76,74,4,4,0,0,1,89.54,71Z"/></g></g></svg>