<svg xmlns="http://www.w3.org/2000/svg" viewBox="0 0 94.11 108"><defs><style>.cls-1{fill:#939598;}.cls-2{fill:#414042;}</style></defs><title>lower-cost-icon</title><g id="Layer_2" data-name="Layer 2"><g id="Layer_1-2" data-name="Layer 1"><path class="cls-1" d="M76.59,68.19V0H32V5.94a35.7,35.7,0,1,1-9.64,70.13L54.3,108,94.11,68.19Z"/><path class="cls-2" d="M31.84,9.8A31.84,31.84,0,1,0,63.68,41.65,31.84,31.84,0,0,0,31.84,9.8Zm-1.47,27A7.92,7.92,0,0,0,33,38.44q1.78.76,3.36,1.57A12.85,12.85,0,0,1,39,41.86a7.56,7.56,0,0,1,1.8,2.41,7.71,7.71,0,0,1,.65,3.31,7.21,7.21,0,0,1-2.08,5.34,9,9,0,0,1-5.66,2.41v3.85h-3V55.32a9.74,9.74,0,0,1-6.41-2.86,9.06,9.06,0,0,1-2.23-6.39h6.45a5,5,0,0,0,1,3.32,3.41,3.41,0,0,0,2.75,1.14,2.71,2.71,0,0,0,2-.78A3,3,0,0,0,35,47.62a3.51,3.51,0,0,0-.75-2.37,7,7,0,0,0-2.62-1.63q-1.88-.77-3.47-1.55a12,12,0,0,1-2.74-1.82,7.15,7.15,0,0,1-1.76-2.39,8,8,0,0,1-.61-3.29,7.08,7.08,0,0,1,2.18-5.33,9.39,9.39,0,0,1,5.82-2.44v-4h3v4.12a8.55,8.55,0,0,1,5.51,2.88,9,9,0,0,1,2,6H35.17a5.22,5.22,0,0,0-.77-3.06,2.52,2.52,0,0,0-2.18-1.07,2.48,2.48,0,0,0-2,.79,3.21,3.21,0,0,0-.7,2.19A3.1,3.1,0,0,0,30.37,36.85Z"/></g></g></svg>