<svg xmlns="http://www.w3.org/2000/svg" viewBox="0 0 160 120"><defs><style>.cls-1{fill:#f2f2f2;}</style></defs><title>Asset 105</title><g id="Layer_2" data-name="Layer 2"><g id="Layer_1-2" data-name="Layer 1"><path class="cls-1" d="M145,0H15A15,15,0,0,0,0,15v90a15,15,0,0,0,15,15H145a15,15,0,0,0,15-15V15A15,15,0,0,0,145,0Zm0,15V27.75c-7,5.71-18.18,14.58-42.06,33.28C97.68,65.17,87.25,75.11,80,75c-7.25.12-17.68-9.83-22.94-14C33.18,42.33,22,33.46,15,27.75V15ZM15,105V47c7.16,5.7,17.32,13.71,32.79,25.83C54.62,78.2,66.59,90.07,80,90s25.16-11.62,32.2-17.17C127.68,60.71,137.84,52.7,145,47v58Z"/></g></g></svg>