<svg xmlns="http://www.w3.org/2000/svg" viewBox="0 0 141.5 158.4"><defs><style>.cls-1{fill:#414042;}</style></defs><title>Asset 10</title><g id="Layer_2" data-name="Layer 2"><g id="Layer_1-2" data-name="Layer 1"><path class="cls-1" d="M94.68,23.83c1.47,1,2.93,1.67,3.8,2.77a4.36,4.36,0,0,1,.8,3.45,3.56,3.56,0,0,1-2.73,1.78c-5.91.25-11.88-.14-17.74.49A77,77,0,0,1,65,32.16c-1.8-.12-4.28,2.06-5.59,3.84-3.77,5.12-5,11.29-6,17.42-2.69,16-2.57,32.11-2,48.25.08,2.2.25,4.41.4,7.11.85-.79,1.46-1.26,2-1.82,7.81-8.83,19-13.24,31.14-6.45,1.59.89,2.35,0,3.35-.8C95,94.1,102.2,89.58,111,87.93c11-2.08,21.64,2.88,26.37,13a42.64,42.64,0,0,1,3.15,27.68c-2.1,9.58-9.57,15.89-20.13,17.26-4.2.55-8.5.32-12.74.67a7.92,7.92,0,0,0-4.17,1.46c-7.08,5.78-15.4,8.39-24.22,9.58-17.22,2.32-34-.43-50.51-5.07-7-2-14-4.32-20.89-6.64S-1.29,138.92.73,132c.68-2.33.52-4.92.67-7.4,1.18-18.8,6.88-36.4,15.24-53.05,5.93-11.81,13-23,19.7-34.45,1.31-2.24,2.4-4.32,2-7s.82-4.85,2.64-6.73C48,16.06,56.52,11,65.6,7,71,4.53,76.63,2.64,82.22.71c4-1.37,4.8-.85,7.14,2.45,2.57,3.62,5.26,7.17,8.08,10.6,2,2.5,2.25,4.37.15,6.89C96.71,21.7,95.73,22.69,94.68,23.83Z"/></g></g></svg>