<svg xmlns="http://www.w3.org/2000/svg" viewBox="0 0 112.61 158.4"><defs><style>.cls-1{fill:#414042;}</style></defs><title>Asset 12</title><g id="Layer_2" data-name="Layer 2"><g id="Layer_1-2" data-name="Layer 1"><path class="cls-1" d="M112.24,68.62c-1.75-18.3-20.69-34.35-30.37-41.43A50.75,50.75,0,0,1,71.28,16.75l-4.62-6.14v-.35a10.26,10.26,0,1,0-20.52,0v97a40.66,40.66,0,0,0-12.81-2C14.92,105.26,0,117.16,0,131.83S14.92,158.4,33.33,158.4s33.33-11.89,33.33-26.57v0h0V44.1C78.88,49.21,86.82,58.33,91.2,64.76A29.36,29.36,0,0,1,96,86.24c-3,17.42-17.2,33.48-17.2,33.48C118.53,115.15,112.24,68.62,112.24,68.62Z"/></g></g></svg>