<svg xmlns="http://www.w3.org/2000/svg" viewBox="0 0 496 496"><defs><style>.cls-1{fill:#cd2028;}</style></defs><title>question-outline-red</title><g id="Layer_2" data-name="Layer 2"><g id="Layer_1-2" data-name="Layer 1"><path class="cls-1" d="M248,0C111,0,0,111.08,0,248S111,496,248,496,496,385,496,248,385,0,248,0Zm0,448A200,200,0,1,1,448,248,199.88,199.88,0,0,1,248,448ZM355.42,193.16c0,67.05-72.79,68.08-72.79,92.86v6.34a12,12,0,0,1-12,12h-46a12,12,0,0,1-12-12V283.7c0-35.74,27.24-50,47.82-61.52,17.65-9.85,28.47-16.54,28.47-29.58,0-17.25-22.11-28.69-40-28.69-23.31,0-34.07,11-49.19,30A12.11,12.11,0,0,1,183,196l-28-21.1a12,12,0,0,1-2.66-16.36c23.75-34.69,54-54.18,101.08-54.18C302.77,104.36,355.42,142.67,355.42,193.16ZM290,360a42,42,0,1,1-42-42A42,42,0,0,1,290,360Z"/></g></g></svg>