<svg xmlns="http://www.w3.org/2000/svg" viewBox="0 0 496 496"><defs><style>.cls-1{fill:#cd2028;}</style></defs><title>question-solid-red</title><g id="Layer_2" data-name="Layer 2"><g id="Layer_1-2" data-name="Layer 1"><path class="cls-1" d="M496,248c0,137-111,248-248,248S0,385,0,248,111,0,248,0,496,111.08,496,248ZM255,81.87c-54.5,0-89.25,23-116.55,63.76a12,12,0,0,0,2.71,16.26l34.7,26.31a12,12,0,0,0,16.67-2.12c17.86-22.66,30.11-35.8,57.3-35.8,20.43,0,45.7,13.15,45.7,33,0,15-12.36,22.67-32.53,34-23.52,13.19-54.65,29.6-54.65,70.66v4a12,12,0,0,0,12,12h56a12,12,0,0,0,12-12v-1.33c0-28.46,83.19-29.65,83.19-106.67C371.56,125.87,311.39,81.87,255,81.87ZM248,330a46,46,0,1,0,46,46A46.05,46.05,0,0,0,248,330Z"/></g></g></svg>