<svg xmlns="http://www.w3.org/2000/svg" viewBox="0 0 148.75 158.4"><defs><style>.cls-1{fill:#414042;}</style></defs><title>Asset 15</title><g id="Layer_2" data-name="Layer 2"><g id="Layer_1-2" data-name="Layer 1"><path class="cls-1" d="M43.22,115.28,83.11,93.73a4.87,4.87,0,0,1,6.67,2.11l3.8,7.59s42.69,24.17,55.17,55H30.22l13.06-32.17-2.15-4.61A4.87,4.87,0,0,1,43.22,115.28Z"/><path class="cls-1" d="M0,59.76,37.37,38.07a6.24,6.24,0,0,1,5.4-.42h0a6.24,6.24,0,0,1,4,6.16L46.12,55a17.62,17.62,0,0,1-5.89,12.21l-10,8.86A17.62,17.62,0,0,1,17.4,80.52L1,79.45s.19,19.88,12.28,32.95l95.13-45.62S121.65,9.65,61,.1C61,.1,1.56-5.16,0,59.76Z"/></g></g></svg>