<svg xmlns="http://www.w3.org/2000/svg" viewBox="0 0 122.13 108.5"><defs><style>.cls-1{fill:none;stroke:#939598;stroke-miterlimit:10;}.cls-2{fill:#939598;}.cls-3{fill:#414042;}</style></defs><title>resale-value</title><g id="Layer_2" data-name="Layer 2"><g id="Layer_1-2" data-name="Layer 1"><polygon class="cls-1" points="121.63 0.5 85.47 0.5 96.38 11.41 69.31 38.48 41.55 10.72 0.71 51.56 13.39 64.25 41.55 36.09 69.31 63.85 109.06 24.09 121.63 36.66 121.63 0.5"/><polygon class="cls-2" points="121.63 0.5 85.47 0.5 96.38 11.41 69.31 38.48 41.55 10.72 0.71 51.56 13.39 64.25 41.55 36.09 69.31 63.85 109.06 24.09 121.63 36.66 121.63 0.5"/><polygon class="cls-3" points="15.64 72.24 15.64 108.5 34.15 108.5 34.15 53.74 15.64 72.24"/><polygon class="cls-3" points="41.55 46.34 40.87 47.01 40.87 108.5 59.38 108.5 59.38 64.16 41.55 46.34"/><polygon class="cls-3" points="69.31 74.09 66.75 71.54 66.75 108.5 85.25 108.5 85.25 58.15 69.31 74.09"/><polygon class="cls-3" points="90.49 52.91 90.49 108.5 109 108.5 109 34.41 90.49 52.91"/></g></g></svg>