<svg xmlns="http://www.w3.org/2000/svg" viewBox="0 0 158.38 158.4"><defs><style>.cls-1{fill:#414042;}</style></defs><title>Asset 14</title><g id="Layer_2" data-name="Layer 2"><g id="Layer_1-2" data-name="Layer 1"><path class="cls-1" d="M135.17,23.19a78.94,78.94,0,1,0,17,25.19A79,79,0,0,0,135.17,23.19ZM35.35,17.88c.72-.55,1.41-1.13,2.15-1.65A66.24,66.24,0,0,1,49.93,9.55a75.77,75.77,0,0,1,49.2-3.23c-2.55,1-5.66,3-10.88,7.45a65.44,65.44,0,0,0-13.14-.07A73.78,73.78,0,0,0,46,22.94c-4.18-1.5-9.57-3.26-12.23-4.13C34.21,18.95,35.07,18.1,35.35,17.88Zm72.14,19.8-13.54,37L61.46,80.89,34.6,53.15C36.42,40.58,45,29.43,45,29.43a62.4,62.4,0,0,1,14.69-7.24,67,67,0,0,1,16-3.53,61.63,61.63,0,0,1,13,.18ZM6.54,76.56A72.14,72.14,0,0,0,6,93.12c-.65-1.3-1.16-2.4-1.55-3.28a75.92,75.92,0,0,1,6-41.94A78.77,78.77,0,0,0,10.51,62,67.22,67.22,0,0,0,6.54,76.56Zm6.57,28.8A69.58,69.58,0,0,1,11,93.55a66.65,66.65,0,0,1,.48-16.32,60.92,60.92,0,0,1,3-11.75C20,60.86,27.25,58.15,31.26,56.9L57.61,84.12l-2.76,29.83-25.75,8.6A71.16,71.16,0,0,1,13.11,105.36Zm78.26,43.19c-5.74,3.76-20.25,4.66-26.14,4.87a75.56,75.56,0,0,1-33.34-15.37c.08-.15-.7-8.09-.67-11l26-8.68,30,13,4.14,17.12Zm49.89-26.34a68.21,68.21,0,0,1-16.27,17c-6,4.26-14.12,5.72-21.31,6.9-.55.08-7.42,1.21-7.47,1L92.07,130l21.15-22,28-2.58c.43,4.46,1,11,1.33,14.94C142.11,121,141.7,121.6,141.26,122.21Zm.43-22.39q-.15.25-.3.55l-27.88,2.56-15-26.25,13.58-37.05,19.17,1.21A67.45,67.45,0,0,1,142,52.14a60.85,60.85,0,0,1,8.83,16.75C148.7,87.39,143.79,96.61,141.7,99.82Zm10-41.63A65.85,65.85,0,0,0,145.94,49a71.52,71.52,0,0,0-12.18-12.63c-.85-4.21-3.18-10.83-9.43-17.78l.35.27,1.13.87A75.92,75.92,0,0,1,151.71,58,.62.62,0,0,0,151.7,58.2Z"/></g></g></svg>