<svg xmlns="http://www.w3.org/2000/svg" viewBox="0 0 452.45 151.96"><defs><style>.cls-1{fill:#f2f2f2;}</style></defs><title>temp-car-icon</title><g id="Layer_2" data-name="Layer 2"><g id="Layer_1-2" data-name="Layer 1"><path class="cls-1" d="M61.51,122.33c-15.88-2.15-31.06-3.72-46-6.43C7.51,114.46.22,103,.41,94.85c0-2.15-.27-4.3-.34-6.45-.21-6.88-.24-13.69,5.17-19.12.79-.79,1-2.34,1.15-3.58.7-4.88,1.35-9.77,1.88-14.67a7.27,7.27,0,0,0-.53-3.27,5.1,5.1,0,0,1,4.45-7.21c11.91-1.22,23.83-2.4,35.74-3.69a23.65,23.65,0,0,0,6.27-1.5Q86.08,22.42,117.88,9.26c1.65-.68,3.58-2.08,4.19-3.61,1.85-4.66,5.52-7.21,9.47-4.6,6,4,12.1,2.62,18.31,2.25,31-1.84,61.95-3.47,92.52,3.59A85.6,85.6,0,0,1,263,14.19c18.23,9.63,36,20.09,54.17,29.9,2.88,1.56,6.62,1.78,10,2.07,19.22,1.63,38.6,2.09,57.64,4.91,17,2.53,33.71,7.48,50.48,11.64a39,39,0,0,1,9.93,4.55,13.68,13.68,0,0,1,7.26,12.32c0,5.81-.42,11.63-.61,17.44-.17,5.11-.47,10.23-.37,15.34.13,6.65-2.38,10.42-9,11.55-6,1-12.15,1.4-19,2.15,3.13-16.64-.58-30.45-13.36-40.92a36.12,36.12,0,0,0-28-8.29c-24.34,2.93-37,22.15-33.11,50.39H136.93c2.27-13.49,1.24-26.25-8.16-37.09a37.4,37.4,0,0,0-26.49-13.37C90.15,76,79.73,80.15,71.35,89.07S60.31,108.87,61.51,122.33ZM192.24,8.83c-17.08,1.47-33.65,2.57-50.13,4.43-11.91,1.34-23.59,4.12-34.27,9.94-5.36,2.92-6.95,7.91-4.45,13.51,2.75,6.15,7.78,8.85,14.29,9.07q39.41,1.37,78.83,2.65a7.38,7.38,0,0,0,1.94-.54Zm94.58,28.32c-23.57-19.74-51.33-26.26-82.49-26.82,4.17,12.18,8.11,23.26,11.71,34.43,1,3.13,2.56,4,5.71,4,18.47-.13,36.95-.06,55.42-.07,1.27,0,2.54-.19,3.81-.29C280.41,40.84,280.91,39.9,286.82,37.15Z"/><path class="cls-1" d="M99.76,151.93a36.86,36.86,0,1,1,36.69-37.4A36.8,36.8,0,0,1,99.76,151.93Zm-26.5-36.85A26.3,26.3,0,1,0,99.47,88.64,26.4,26.4,0,0,0,73.26,115.08Z"/><path class="cls-1" d="M386,152A36.9,36.9,0,0,1,386,78.17,36.9,36.9,0,1,1,386,152Zm26.6-36.55a26.51,26.51,0,1,0-26.68,26.2A26.72,26.72,0,0,0,412.61,115.41Z"/><path class="cls-1" d="M77.11,110.9l3.65-8.71,8.08,8.71Z"/><path class="cls-1" d="M109.32,111.06l9-8.92,3.72,8.92Z"/><path class="cls-1" d="M90.05,119.27l-9.55,8-3.49-8Z"/><path class="cls-1" d="M110.46,119.06H122l-3.65,9.21Z"/><path class="cls-1" d="M103.77,105.29V92.73l8.64,3.6Z"/><path class="cls-1" d="M95.4,125v12.43l-9.15-3.71Z"/><path class="cls-1" d="M103.66,137.6V125l9.19,8.74Z"/><path class="cls-1" d="M103.86,114.84c-1.8,1.61-3.11,3.55-3.94,3.36a5.31,5.31,0,0,1-3.29-3.2c-.21-.7,1.74-2.79,2.89-2.94S101.9,113.5,103.86,114.84Z"/><path class="cls-1" d="M382,92.74v12.49l-7.56-9.38Z"/><path class="cls-1" d="M96.4,92.74v12.49l-7.56-9.38Z"/><path class="cls-1" d="M398.39,96l-8.18,9.39V92.81Z"/><path class="cls-1" d="M405.64,103.8l2.84,7.24H396.36Z"/><path class="cls-1" d="M396.82,119.14H408.5l-3.5,8.66Z"/><path class="cls-1" d="M363.74,111l3.28-8.24,7.82,8.24Z"/><path class="cls-1" d="M363.76,119.16h12.62L367,127.3Z"/><path class="cls-1" d="M373.75,134.18l8.29-9.35v12.58Z"/><path class="cls-1" d="M398.51,134.14l-8.35,3.29V125.17l6.71,9.74Z"/><path class="cls-1" d="M390.7,115.6c-2.28,1.26-3.74,2.71-5,2.58-1.05-.11-1.91-2.11-2.86-3.27,1.25-1,2.42-2.65,3.78-2.82C387.54,112,388.74,113.84,390.7,115.6Z"/></g></g></svg>