<svg xmlns="http://www.w3.org/2000/svg" viewBox="0 0 717.88 115.22"><defs><style>.cls-1{fill:#050606;}</style></defs><title>ziebart-text-logo-black</title><g id="Layer_2" data-name="Layer 2"><g id="Layer_1-2" data-name="Layer 1"><ellipse class="cls-1" cx="149.61" cy="13.64" rx="19.23" ry="12.97"/><polygon class="cls-1" points="6.21 0 126.46 0 53.34 92.58 121.1 92.58 121.1 111.37 0 111.37 73.38 21.13 6.12 21.13 6.21 0"/><rect class="cls-1" x="133.96" y="30.41" width="31.53" height="80.96"/><path class="cls-1" d="M564.9,111.37V30.53h33.54V41.26l5-4.52a24.3,24.3,0,0,1,16.23-6.21h20.66V13.75h33.21v16.1H687V52H673.58V89.51a2.76,2.76,0,0,0,2.35,2.73l11.06.67v18.45s-47.3,4.92-47.3-11.52V52.33H622.59c-11.67,0-23.82,5.44-23.82,17.11v41.93Z"/><path class="cls-1" d="M520.06,30.86V43.77c-9.32-7.29-26.14-11.66-40.26-11.66-25,0-42.74,14-46.76,32.7-3.44-19.37-21.43-34-47-34-14.12,0-30.94,4.37-40.26,11.66V.45H312V110.7h33.77v-9.78c9.32,7.29,22.11,11.79,36.23,11.79,25.28,0,46.31-14.43,50.77-33.49,3.77,19.72,25.2,34.83,51.07,34.83,14.12,0,26.9-4.5,36.23-11.79V112h33.77V30.86ZM371.81,92.58c-13.89,0-25.16-8.91-25.16-19.9s11.26-19.9,25.16-19.9S397,61.69,397,72.68,385.71,92.58,371.81,92.58ZM494,95.71c-13.89,0-25.16-9.31-25.16-20.8s11.26-20.8,25.16-20.8,25.16,9.31,25.16,20.8S507.9,95.71,494,95.71Z"/><path class="cls-1" d="M269.45,84.49c-5.34,6.15-15.4,10.31-27,10.31-11.88,0-22.2-4.39-27.42-10.83a16.49,16.49,0,0,1-3-5.45h90.4a26.68,26.68,0,0,0,.82-6.5c0-22.48-28.44-40.7-63.51-40.7S176.28,49.53,176.28,72s28.44,40.7,63.51,40.7c24.13,0,45.12-8.63,55.87-21.33Zm-55.55-21q.21-.36.44-.72c4.61-7.15,14.28-12.07,25.46-12.07,11.58,0,21.53,5.29,25.92,12.85H213.86Z"/><path class="cls-1" d="M717.88,107.32a8,8,0,1,1-8-7.8A7.84,7.84,0,0,1,717.88,107.32Zm-14,0a6,6,0,0,0,6.09,6.23,6,6,0,0,0,5.95-6.19,6,6,0,1,0-12,0Zm4.81,4.09h-1.81v-7.8a15.78,15.78,0,0,1,3-.24,4.86,4.86,0,0,1,2.71.57,2.16,2.16,0,0,1,.76,1.71,2,2,0,0,1-1.62,1.81v.1a2.3,2.3,0,0,1,1.43,1.9,6,6,0,0,0,.57,2h-2a6.68,6.68,0,0,1-.62-1.9c-.14-.86-.62-1.24-1.62-1.24h-.86Zm0-4.42h.86c1,0,1.81-.33,1.81-1.14s-.52-1.19-1.66-1.19a4.33,4.33,0,0,0-1,.1Z"/></g></g></svg>